<?xml version="1.0" encoding="utf-8"?>
<!-- Generator: Adobe Illustrator 23.0.1, SVG Export Plug-In . SVG Version: 6.00 Build 0)  -->
<svg version="1.1" id="Layer_1" xmlns="http://www.w3.org/2000/svg" xmlns:xlink="http://www.w3.org/1999/xlink" x="0px" y="0px"
	 viewBox="0 0 200 200" style="enable-background:new 0 0 200 200;" xml:space="preserve">
<style type="text/css">
	.st0{fill:none;}
	.st1{fill:#E86412;}
	.st2{fill:#CCC4BF;}
</style>
<g>
	<rect class="st0" width="200" height="200"/>
	<g>
		<path class="st1" d="M177.5,100c0-15.5-17-29-41.8-35.7C129,39.5,115.5,22.5,100,22.5s-29,17-35.7,41.8
			C39.5,71,22.5,84.5,22.5,100s17,29,41.8,35.7c6.7,24.9,20.1,41.8,35.7,41.8c15.5,0,29-17,35.7-41.8
			C160.5,129,177.5,115.5,177.5,100z"/>
		<g>
			<path class="st2" d="M135.7,64.3C129,39.5,115.5,22.5,100,22.5s-29,17-35.7,41.8c10.7-2.9,22.8-4.5,35.7-4.5
				C112.9,59.8,125,61.5,135.7,64.3z"/>
			<path class="st2" d="M64.3,135.7c6.7,24.9,20.1,41.8,35.7,41.8s29-17,35.7-41.8c-10.7,2.9-22.8,4.5-35.7,4.5S75,138.5,64.3,135.7
				z"/>
			<path class="st2" d="M64.3,64.3C39.5,71,22.5,84.5,22.5,100s17,29,41.8,35.7c-2.9-10.7-4.5-22.8-4.5-35.7
				C59.8,87.1,61.5,75,64.3,64.3z"/>
			<path class="st2" d="M177.5,100c0-15.5-17-29-41.8-35.7c2.9,10.7,4.5,22.8,4.5,35.7s-1.6,25-4.5,35.7
				C160.5,129,177.5,115.5,177.5,100z"/>
		</g>
	</g>
</g>
</svg>
