<?xml version="1.0" encoding="utf-8"?>
<!-- Generator: Adobe Illustrator 23.0.1, SVG Export Plug-In . SVG Version: 6.00 Build 0)  -->
<svg version="1.1" id="Layer_1" xmlns="http://www.w3.org/2000/svg" xmlns:xlink="http://www.w3.org/1999/xlink" x="0px" y="0px"
	 viewBox="0 0 200 200" style="enable-background:new 0 0 200 200;" xml:space="preserve">
<style type="text/css">
	.st0{fill:none;}
	.st1{fill:#E86412;}
	.st2{fill:#CCC4BF;}
</style>
<g>
	<rect class="st0" width="200" height="200"/>
	<g>
		<path class="st1" d="M119.8,39L119.8,39c3.6,9.4,13.2,14.9,23.1,13.4l0,0c19.2-3.1,32,19.2,19.8,34.3l0,0
			c-6.3,7.8-6.3,18.9,0,26.7l0,0c12.3,15.1-0.6,37.3-19.8,34.3l0,0c-9.9-1.6-19.6,4-23.1,13.4l0,0c-6.9,18.2-32.6,18.2-39.6,0l0,0
			c-3.6-9.4-13.2-14.9-23.1-13.4l0,0c-19.2,3.1-32-19.2-19.8-34.3l0,0c6.3-7.8,6.3-18.9,0-26.7l0,0C25,71.6,37.9,49.3,57.1,52.4l0,0
			C67,54,76.6,48.4,80.2,39l0,0C87.2,20.9,112.8,20.9,119.8,39z"/>
		<path class="st2" d="M162.7,86.6L162.7,86.6c12.3-15.1-0.6-37.3-19.8-34.3l0,0c-9.9,1.6-19.6-4-23.1-13.4l0,0
			c-6.9-18.2-32.6-18.2-39.6,0l0,0C76.6,48.4,67,54,57.1,52.4l0,0c-19.2-3.1-32,19.2-19.8,34.3l0,0c3.2,3.9,4.7,8.6,4.7,13.4h115.9
			C157.9,95.3,159.5,90.5,162.7,86.6z"/>
	</g>
</g>
</svg>
