<?xml version="1.0" encoding="utf-8"?>
<!-- Generator: Adobe Illustrator 23.0.1, SVG Export Plug-In . SVG Version: 6.00 Build 0)  -->
<svg version="1.1" id="Layer_1" xmlns="http://www.w3.org/2000/svg" xmlns:xlink="http://www.w3.org/1999/xlink" x="0px" y="0px"
	 viewBox="0 0 200 200" style="enable-background:new 0 0 200 200;" xml:space="preserve">
<style type="text/css">
	.st0{fill:none;}
	.st1{fill:#E86412;}
	.st2{fill:#CCC4BF;}
</style>
<g>
	<rect class="st0" width="200" height="200"/>
	<g>
		<path class="st2" d="M100,16.3L100,16.3c12.5,28.3,41.8,45.2,72.5,41.9l0,0l0,0c-18.2,24.9-18.2,58.8,0,83.7l0,0l0,0
			c-30.7-3.3-60,13.6-72.5,41.9l0,0l0,0c-12.5-28.3-41.8-45.2-72.5-41.9l0,0l0,0c18.2-24.9,18.2-58.8,0-83.7l0,0l0,0
			C58.2,61.5,87.5,44.5,100,16.3L100,16.3z"/>
		<path class="st1" d="M100,16.3L100,16.3L100,16.3c12.5,28.3,41.8,45.2,72.5,41.9l0,0l0,0c-18.2,24.9-18.2,58.8,0,83.7l0,0l0,0
			c-30.7-3.3-60,13.6-72.5,41.9l0,0l0,0"/>
	</g>
</g>
</svg>
